<svg width="16" height="16" viewBox="0 0 16 16" fill="none" xmlns="http://www.w3.org/2000/svg">
<g clip-path="url(#clip0_685_577)">
<path d="M8.0026 0.892578C3.77594 0.892578 0.335938 3.72591 0.335938 7.20591C0.348468 8.04356 0.54484 8.86823 0.911171 9.62162C1.2775 10.375 1.80485 11.0388 2.45594 11.5659L0.922604 14.6259C0.89111 14.6875 0.879951 14.7574 0.890733 14.8257C0.901514 14.894 0.933681 14.9571 0.982604 15.0059C1.03121 15.0551 1.0939 15.0879 1.16198 15.0998C1.23006 15.1118 1.30017 15.1022 1.3626 15.0726L5.4626 13.1659C6.28762 13.4071 7.14305 13.5284 8.0026 13.5259C12.2293 13.5259 15.6693 10.6926 15.6693 7.20591C15.6693 3.71924 12.2293 0.892578 8.0026 0.892578Z" fill="#9C9C9C"/>
</g>
<defs>
<clipPath id="clip0_685_577">
<rect width="16" height="16" fill="white"/>
</clipPath>
</defs>
</svg>
