<svg width="30" height="30" viewBox="0 0 30 30" fill="none" xmlns="http://www.w3.org/2000/svg">
<path fill-rule="evenodd" clip-rule="evenodd" d="M0 4.28739C0 3.10393 0.959389 2.14453 2.14286 2.14453H27.8571C29.0406 2.14453 30 3.10393 30 4.28739C30 5.47085 29.0406 6.43025 27.8571 6.43025H2.14286C0.959389 6.43025 0 5.47085 0 4.28739ZM0 15.0017C0 13.8182 0.959389 12.8588 2.14286 12.8588H27.8571C29.0406 12.8588 30 13.8182 30 15.0017C30 16.1851 29.0406 17.1445 27.8571 17.1445H2.14286C0.959389 17.1445 0 16.1851 0 15.0017ZM2.14286 23.5731C0.959389 23.5731 0 24.5325 0 25.716C0 26.8995 0.959389 27.8588 2.14286 27.8588H27.8571C29.0406 27.8588 30 26.8995 30 25.716C30 24.5325 29.0406 23.5731 27.8571 23.5731H2.14286Z" fill="#333333"/>
</svg>
