<svg width="16" height="16" viewBox="0 0 16 16" fill="none" xmlns="http://www.w3.org/2000/svg">
<g clip-path="url(#clip0_685_573)">
<path d="M15.5338 3.38614C15.2214 2.77506 14.7698 2.24594 14.2154 1.84145C13.6609 1.43696 13.0192 1.16842 12.3419 1.05748C11.6646 0.946548 10.9707 0.996323 10.3162 1.2028C9.6617 1.40927 9.06486 1.76666 8.57383 2.24614L8.0005 2.76614L7.44717 2.25948C6.95574 1.7724 6.3553 1.40947 5.69561 1.20078C5.03592 0.99209 4.33598 0.943651 3.65383 1.05948C2.97552 1.16478 2.33228 1.43095 1.77788 1.83573C1.22349 2.24051 0.774057 2.77213 0.467167 3.38614C0.0542189 4.19291 -0.090232 5.11049 0.0548734 6.0051C0.199979 6.89972 0.627053 7.7246 1.27383 8.35948L7.5205 14.7995C7.58269 14.864 7.65725 14.9153 7.73972 14.9504C7.82219 14.9854 7.91089 15.0035 8.0005 15.0035C8.09011 15.0035 8.17881 14.9854 8.26128 14.9504C8.34375 14.9153 8.41831 14.864 8.4805 14.7995L14.7205 8.37281C15.3695 7.7366 15.7984 6.90978 15.9447 6.01281C16.091 5.11585 15.947 4.1956 15.5338 3.38614Z" fill="#F21717"/>
</g>
<defs>
<clipPath id="clip0_685_573">
<rect width="16" height="16" fill="white"/>
</clipPath>
</defs>
</svg>
