<svg width="16" height="16" viewBox="0 0 16 16" fill="none" xmlns="http://www.w3.org/2000/svg">
<g clip-path="url(#clip0_723_412)">
<path d="M10.0433 2.66644C10.0123 2.63423 9.975 2.60874 9.93372 2.59153C9.89243 2.57433 9.84806 2.56579 9.80334 2.56644C9.71636 2.56592 9.63263 2.59941 9.57001 2.65977L2.29001 9.93977C2.25876 9.97076 2.23396 10.0076 2.21704 10.0482C2.20012 10.0889 2.19141 10.1324 2.19141 10.1764C2.19141 10.2204 2.20012 10.264 2.21704 10.3046C2.23396 10.3453 2.25876 10.3821 2.29001 10.4131L5.58334 13.7064C5.64693 13.7703 5.73325 13.8062 5.82334 13.8064C5.86694 13.8062 5.91004 13.7972 5.95012 13.78C5.99019 13.7629 6.02642 13.7378 6.05667 13.7064L13.33 6.43311C13.3915 6.36967 13.4259 6.28479 13.4259 6.19644C13.4259 6.10809 13.3915 6.02321 13.33 5.95977L10.0433 2.66644Z" fill="#333333"/>
<path d="M1.61858 11.1997C1.57571 11.1597 1.52324 11.1315 1.46626 11.1178C1.40929 11.1041 1.34974 11.1054 1.29339 11.1215C1.23704 11.1376 1.18582 11.168 1.14468 11.2097C1.10353 11.2514 1.07388 11.3031 1.05858 11.3597L0.0519152 15.5397C0.0385748 15.5955 0.0401778 15.6538 0.0565628 15.7088C0.0729478 15.7638 0.103536 15.8136 0.145249 15.853C0.185425 15.8936 0.235195 15.9235 0.289961 15.9398C0.344726 15.9561 0.402719 15.9583 0.458582 15.9463L4.66525 14.9397C4.72258 14.926 4.77515 14.8971 4.81741 14.8561C4.85966 14.815 4.89001 14.7632 4.90525 14.7063C4.92073 14.6496 4.92151 14.5898 4.90752 14.5326C4.89352 14.4755 4.86521 14.4228 4.82525 14.3797L1.61858 11.1997Z" fill="#333333"/>
<path d="M15.4667 1.94634L14.0534 0.533002C13.739 0.222769 13.315 0.0488281 12.8734 0.0488281C12.4317 0.0488281 12.0078 0.222769 11.6934 0.533002L10.7534 1.47967C10.7215 1.5096 10.6961 1.54574 10.6787 1.58587C10.6613 1.626 10.6523 1.66927 10.6523 1.713C10.6523 1.75673 10.6613 1.8 10.6787 1.84013C10.6961 1.88026 10.7215 1.91641 10.7534 1.94634L14.0534 5.27967C14.0833 5.31156 14.1194 5.33697 14.1596 5.35434C14.1997 5.37172 14.243 5.38068 14.2867 5.38068C14.3304 5.38068 14.3737 5.37172 14.4138 5.35434C14.454 5.33697 14.4901 5.31156 14.52 5.27967L15.4667 4.29967C15.7781 3.98726 15.953 3.56413 15.953 3.123C15.953 2.68188 15.7781 2.25874 15.4667 1.94634Z" fill="#333333"/>
</g>
<defs>
<clipPath id="clip0_723_412">
<rect width="16" height="16" fill="white"/>
</clipPath>
</defs>
</svg>
