<svg width="16" height="16" viewBox="0 0 16 16" fill="none" xmlns="http://www.w3.org/2000/svg">
<g clip-path="url(#clip0_724_652)">
<path d="M12.9974 6H2.9974C2.90899 6 2.82421 6.03512 2.76169 6.09763C2.69918 6.16014 2.66406 6.24493 2.66406 6.33333V14.6667C2.66406 15.0203 2.80454 15.3594 3.05459 15.6095C3.30464 15.8595 3.64377 16 3.9974 16H11.9974C12.351 16 12.6902 15.8595 12.9402 15.6095C13.1903 15.3594 13.3307 15.0203 13.3307 14.6667V6.32667C13.329 6.23942 13.2931 6.15634 13.2308 6.09526C13.1684 6.03419 13.0847 5.99998 12.9974 6ZM6.83073 13.6667C6.83073 13.7993 6.77805 13.9265 6.68428 14.0202C6.59051 14.114 6.46334 14.1667 6.33073 14.1667C6.19812 14.1667 6.07094 14.114 5.97718 14.0202C5.88341 13.9265 5.83073 13.7993 5.83073 13.6667V7.91333C5.83073 7.78073 5.88341 7.65355 5.97718 7.55978C6.07094 7.46601 6.19812 7.41333 6.33073 7.41333C6.46334 7.41333 6.59051 7.46601 6.68428 7.55978C6.77805 7.65355 6.83073 7.78073 6.83073 7.91333V13.6667ZM10.1641 13.6667C10.1641 13.7993 10.1114 13.9265 10.0176 14.0202C9.92385 14.114 9.79667 14.1667 9.66406 14.1667C9.53145 14.1667 9.40428 14.114 9.31051 14.0202C9.21674 13.9265 9.16406 13.7993 9.16406 13.6667V7.91333C9.16406 7.78073 9.21674 7.65355 9.31051 7.55978C9.40428 7.46601 9.53145 7.41333 9.66406 7.41333C9.79667 7.41333 9.92385 7.46601 10.0176 7.55978C10.1114 7.65355 10.1641 7.78073 10.1641 7.91333V13.6667Z" fill="#DD0F0F"/>
<path d="M13.9454 3.23306C13.0808 2.83033 12.15 2.5886 11.1987 2.51973C11.0242 1.8026 10.614 1.16487 10.0337 0.708827C9.45339 0.252788 8.73674 0.00488281 7.9987 0.00488281C7.26066 0.00488281 6.54401 0.252788 5.96373 0.708827C5.38344 1.16487 4.97316 1.8026 4.7987 2.51973C3.87921 2.5939 2.97825 2.81914 2.13203 3.18639C1.90753 3.28371 1.71414 3.44093 1.57303 3.64083C1.43193 3.84073 1.34855 4.0756 1.33203 4.31973C1.33203 4.49654 1.40227 4.66611 1.52729 4.79113C1.65232 4.91616 1.82189 4.98639 1.9987 4.98639H13.9987C14.1755 4.98639 14.3451 4.91616 14.4701 4.79113C14.5951 4.66611 14.6654 4.49654 14.6654 4.31973C14.6581 4.08961 14.5868 3.86607 14.4597 3.67415C14.3325 3.48223 14.1544 3.32949 13.9454 3.23306ZM7.9987 1.33306C8.35698 1.3301 8.709 1.4271 9.01519 1.61317C9.32139 1.79924 9.56963 2.06701 9.73203 2.38639C8.57753 2.31646 7.41986 2.31646 6.26536 2.38639C6.42399 2.06399 6.67138 1.79359 6.97844 1.60699C7.28551 1.42039 7.63947 1.32535 7.9987 1.33306Z" fill="#DD0F0F"/>
</g>
<defs>
<clipPath id="clip0_724_652">
<rect width="16" height="16" fill="white"/>
</clipPath>
</defs>
</svg>
