<svg width="80" height="80" viewBox="0 0 80 80" fill="none" xmlns="http://www.w3.org/2000/svg">
<g clip-path="url(#clip0_1161_802)">
<path d="M40.0013 78.3327C61.1713 78.3327 78.3346 61.1693 78.3346 39.9993C78.3346 18.8293 61.1713 1.66602 40.0013 1.66602C18.8313 1.66602 1.66797 18.8293 1.66797 39.9993C1.66797 61.1693 18.8313 78.3327 40.0013 78.3327Z" fill="#84F4B8"/>
<path d="M40.0013 17.5293C48.7896 17.5301 57.3108 20.5506 64.1377 26.0849C70.9646 31.6192 75.6825 39.3312 77.5013 47.9293C78.6852 42.3447 78.6068 36.5662 77.2718 31.0158C75.9369 25.4654 73.3791 20.2832 69.7853 15.8477C66.1915 11.4122 61.6524 7.83541 56.4995 5.37846C51.3466 2.92152 45.71 1.64648 40.0013 1.64648C34.2926 1.64648 28.656 2.92152 23.5031 5.37846C18.3502 7.83541 13.8111 11.4122 10.2173 15.8477C6.62349 20.2832 4.06572 25.4654 2.73079 31.0158C1.39585 36.5662 1.31745 42.3447 2.5013 47.9293C4.3201 39.3312 9.03804 31.6192 15.8649 26.0849C22.6918 20.5506 31.213 17.5301 40.0013 17.5293Z" fill="#44D084"/>
<path d="M40.0013 78.3327C61.1713 78.3327 78.3346 61.1693 78.3346 39.9993C78.3346 18.8293 61.1713 1.66602 40.0013 1.66602C18.8313 1.66602 1.66797 18.8293 1.66797 39.9993C1.66797 61.1693 18.8313 78.3327 40.0013 78.3327Z" stroke="#191919" stroke-width="3.33333" stroke-linecap="round" stroke-linejoin="round"/>
<path d="M40.0013 31.6667C42.8745 31.6667 45.63 30.5253 47.6616 28.4937C49.6933 26.462 50.8346 23.7065 50.8346 20.8333C50.8346 17.9602 49.6933 15.2047 47.6616 13.173C45.63 11.1414 42.8745 10 40.0013 10C37.1281 10 34.3726 11.1414 32.341 13.173C30.3093 15.2047 29.168 17.9602 29.168 20.8333C29.168 23.7065 30.3093 26.462 32.341 28.4937C34.3726 30.5253 37.1281 31.6667 40.0013 31.6667Z" fill="#FFDDA1"/>
<path d="M46.8167 69.9993L48.3333 61.666H55V51.666C55 49.6962 54.612 47.7456 53.8582 45.9258C53.1044 44.1059 51.9995 42.4523 50.6066 41.0594C49.2137 39.6665 47.5601 38.5616 45.7402 37.8078C43.9204 37.054 41.9698 36.666 40 36.666C38.0302 36.666 36.0796 37.054 34.2598 37.8078C32.4399 38.5616 30.7863 39.6665 29.3934 41.0594C28.0005 42.4523 26.8956 44.1059 26.1418 45.9258C25.388 47.7456 25 49.6962 25 51.666V61.666H31.6667L33.1833 69.9993" fill="white"/>
<path d="M40.0013 16.6667C42.2844 16.6713 44.5073 17.3998 46.3502 18.7475C48.1932 20.0951 49.5613 21.9924 50.258 24.1667C50.6246 23.0933 50.8213 21.9667 50.8346 20.8333C50.8346 17.9602 49.6933 15.2047 47.6616 13.173C45.63 11.1414 42.8745 10 40.0013 10C37.1281 10 34.3726 11.1414 32.341 13.173C30.3093 15.2047 29.168 17.9602 29.168 20.8333C29.1813 21.9667 29.378 23.0933 29.7446 24.1667C30.4413 21.9924 31.8094 20.0951 33.6524 18.7475C35.4954 17.3998 37.7182 16.6713 40.0013 16.6667Z" fill="#FFDDA1"/>
<path d="M40.0013 31.6667C42.8745 31.6667 45.63 30.5253 47.6616 28.4937C49.6933 26.462 50.8346 23.7065 50.8346 20.8333C50.8346 17.9602 49.6933 15.2047 47.6616 13.173C45.63 11.1414 42.8745 10 40.0013 10C37.1281 10 34.3726 11.1414 32.341 13.173C30.3093 15.2047 29.168 17.9602 29.168 20.8333C29.168 23.7065 30.3093 26.462 32.341 28.4937C34.3726 30.5253 37.1281 31.6667 40.0013 31.6667Z" stroke="#191919" stroke-width="3.33333" stroke-linecap="round" stroke-linejoin="round"/>
<path d="M40 36.666C36.0218 36.666 32.2064 38.2464 29.3934 41.0594C26.5804 43.8725 25 47.6878 25 51.666V58.3327C25 56.3629 25.388 54.4123 26.1418 52.5924C26.8956 50.7725 28.0005 49.119 29.3934 47.7261C30.7863 46.3332 32.4399 45.2283 34.2598 44.4745C36.0796 43.7207 38.0302 43.3327 40 43.3327C41.9698 43.3327 43.9204 43.7207 45.7402 44.4745C47.5601 45.2283 49.2137 46.3332 50.6066 47.7261C51.9995 49.119 53.1044 50.7725 53.8582 52.5924C54.612 54.4123 55 56.3629 55 58.3327V51.666C55 47.6878 53.4196 43.8725 50.6066 41.0594C47.7936 38.2464 43.9782 36.666 40 36.666Z" fill="white"/>
<path d="M46.8167 69.9993L48.3333 61.666H55V51.666C55 49.6962 54.612 47.7456 53.8582 45.9258C53.1044 44.1059 51.9995 42.4523 50.6066 41.0594C49.2137 39.6665 47.5601 38.5616 45.7402 37.8078C43.9204 37.054 41.9698 36.666 40 36.666C38.0302 36.666 36.0796 37.054 34.2598 37.8078C32.4399 38.5616 30.7863 39.6665 29.3934 41.0594C28.0005 42.4523 26.8956 44.1059 26.1418 45.9258C25.388 47.7456 25 49.6962 25 51.666V61.666H31.6667L33.1833 69.9993" stroke="#191919" stroke-width="3.33333" stroke-linecap="round" stroke-linejoin="round"/>
</g>
<defs>
<clipPath id="clip0_1161_802">
<rect width="80" height="80" fill="white"/>
</clipPath>
</defs>
</svg>
