<svg width="28" height="28" viewBox="0 0 28 28" fill="none" xmlns="http://www.w3.org/2000/svg">
<g clip-path="url(#clip0_607_699)">
<path d="M20.4173 0.583984H7.58398C3.71799 0.583984 0.583984 3.71799 0.583984 7.58398V20.4173C0.583984 24.2833 3.71799 27.4173 7.58398 27.4173H20.4173C24.2833 27.4173 27.4173 24.2833 27.4173 20.4173V7.58398C27.4173 3.71799 24.2833 0.583984 20.4173 0.583984Z" fill="#FFBFC5"/>
<path d="M25.2954 2.56641L2.56641 25.2966C3.21778 25.9682 3.99757 26.502 4.85938 26.8661C5.72121 27.2303 6.64748 27.4174 7.58307 27.4164H20.4164C22.2729 27.4164 24.0534 26.6789 25.3662 25.3662C26.6789 24.0534 27.4164 22.2729 27.4164 20.4164V7.58307C27.4176 6.64735 27.2303 5.72096 26.866 4.85909C26.5016 3.99723 25.9674 3.21752 25.2954 2.56641Z" fill="#FF808C"/>
<path d="M20.4173 0.583984H7.58398C3.71799 0.583984 0.583984 3.71799 0.583984 7.58398V20.4173C0.583984 24.2833 3.71799 27.4173 7.58398 27.4173H20.4173C24.2833 27.4173 27.4173 24.2833 27.4173 20.4173V7.58398C27.4173 3.71799 24.2833 0.583984 20.4173 0.583984Z" stroke="#191919" stroke-width="1.16667" stroke-linecap="round" stroke-linejoin="round"/>
<path d="M14 21C17.866 21 21 17.866 21 14C21 10.134 17.866 7 14 7C10.134 7 7 10.134 7 14C7 17.866 10.134 21 14 21Z" fill="white" stroke="#191919" stroke-width="1.16667" stroke-linecap="round" stroke-linejoin="round"/>
<path d="M22.166 7.58398C23.1325 7.58398 23.916 6.80049 23.916 5.83398C23.916 4.86748 23.1325 4.08398 22.166 4.08398C21.1995 4.08398 20.416 4.86748 20.416 5.83398C20.416 6.80049 21.1995 7.58398 22.166 7.58398Z" fill="white" stroke="#191919" stroke-width="1.16667" stroke-linecap="round" stroke-linejoin="round"/>
</g>
<defs>
<clipPath id="clip0_607_699">
<rect width="28" height="28" fill="white"/>
</clipPath>
</defs>
</svg>
