<svg width="28" height="28" viewBox="0 0 28 28" fill="none" xmlns="http://www.w3.org/2000/svg">
<g clip-path="url(#clip0_607_709)">
<path d="M14.584 27.4173H1.75065C1.44123 27.4173 1.14449 27.2943 0.925693 27.0756C0.706901 26.8568 0.583984 26.5601 0.583984 26.2507V1.75065C0.583984 1.44123 0.706901 1.14449 0.925693 0.925693C1.14449 0.706901 1.44123 0.583984 1.75065 0.583984H26.2507C26.5601 0.583984 26.8568 0.706901 27.0756 0.925693C27.2943 1.14449 27.4173 1.44123 27.4173 1.75065V26.2507C27.4173 26.5601 27.2943 26.8568 27.0756 27.0756C26.8568 27.2943 26.5601 27.4173 26.2507 27.4173H19.2507V16.9173H22.2362C22.3791 16.9184 22.5174 16.867 22.625 16.7728C22.7326 16.6786 22.8018 16.5482 22.8195 16.4063L23.257 12.9063C23.2673 12.8238 23.2599 12.7402 23.2352 12.6609C23.2106 12.5815 23.1693 12.5083 23.1139 12.4462C23.0588 12.3841 22.9909 12.3345 22.9149 12.3008C22.839 12.2671 22.7567 12.2501 22.6737 12.2507H19.2507V10.7165C19.2512 10.1951 19.4588 9.69527 19.8276 9.3267C20.1964 8.95813 20.6963 8.75095 21.2177 8.75065H23.334C23.4887 8.75065 23.6371 8.68919 23.7465 8.57979C23.8558 8.47041 23.9173 8.32203 23.9173 8.16732V4.66732C23.9173 4.51261 23.8558 4.36423 23.7465 4.25484C23.6371 4.14544 23.4887 4.08398 23.334 4.08398H21.2177C19.459 4.08584 17.7731 4.78517 16.5294 6.02857C15.2857 7.27197 14.5862 8.9579 14.584 10.7165V12.2507H11.6673C11.5126 12.2507 11.3642 12.3121 11.2548 12.4215C11.1454 12.5309 11.084 12.6793 11.084 12.834V16.334C11.084 16.4887 11.1454 16.6371 11.2548 16.7465C11.3642 16.8558 11.5126 16.9173 11.6673 16.9173H14.584V27.4173Z" fill="#66E1FF"/>
<path d="M26.2507 0.583984H1.75065C1.44123 0.583984 1.14449 0.706901 0.925693 0.925693C0.706901 1.14449 0.583984 1.44123 0.583984 1.75065V26.2507C0.586331 26.4277 0.629692 26.6018 0.710662 26.7593C0.791632 26.9168 0.908008 27.0534 1.05065 27.1583L11.3803 16.8298C11.2916 16.7807 11.2174 16.7088 11.1654 16.6218C11.1133 16.5348 11.0853 16.4354 11.084 16.334V12.834C11.084 12.6793 11.1454 12.5309 11.2548 12.4215C11.3642 12.3121 11.5126 12.2507 11.6673 12.2507H14.584V10.7165C14.5862 8.9579 15.2857 7.27197 16.5294 6.02857C17.7731 4.78517 19.459 4.08584 21.2177 4.08398H23.334C23.4351 4.08503 23.5343 4.11277 23.6213 4.16438C23.7085 4.216 23.7803 4.28969 23.8298 4.37798L27.1583 1.05065C27.0534 0.908008 26.9168 0.791632 26.7593 0.710662C26.6018 0.629692 26.4277 0.586331 26.2507 0.583984Z" fill="#C2F3FF"/>
<path d="M14.584 27.4173H1.75065C1.44123 27.4173 1.14449 27.2944 0.925693 27.0756C0.706901 26.8569 0.583984 26.5601 0.583984 26.2507V1.75065C0.583984 1.44123 0.706901 1.14449 0.925693 0.925693C1.14449 0.706901 1.44123 0.583984 1.75065 0.583984H26.2507C26.5601 0.583984 26.8569 0.706901 27.0756 0.925693C27.2944 1.14449 27.4173 1.44123 27.4173 1.75065V26.2507C27.4173 26.5601 27.2944 26.8569 27.0756 27.0756C26.8569 27.2944 26.5601 27.4173 26.2507 27.4173H19.2507V16.9173H22.2362C22.3791 16.9184 22.5174 16.867 22.625 16.7728C22.7326 16.6786 22.8018 16.5482 22.8195 16.4063L23.257 12.9063C23.2673 12.8238 23.2599 12.7402 23.2352 12.6609C23.2106 12.5815 23.1692 12.5083 23.1139 12.4462C23.0588 12.3841 22.9909 12.3345 22.9149 12.3008C22.839 12.2671 22.7567 12.2501 22.6737 12.2507H19.2507V10.7165C19.2512 10.1951 19.4588 9.69527 19.8276 9.3267C20.1963 8.95813 20.6963 8.75095 21.2177 8.75065H23.334C23.4887 8.75065 23.6371 8.68919 23.7465 8.57979C23.8558 8.47041 23.9173 8.32203 23.9173 8.16732V4.66732C23.9173 4.51261 23.8558 4.36423 23.7465 4.25484C23.6371 4.14544 23.4887 4.08398 23.334 4.08398H21.2177C19.459 4.08584 17.7731 4.78517 16.5294 6.02857C15.2857 7.27197 14.5862 8.9579 14.584 10.7165V12.2507H11.6673C11.5126 12.2507 11.3642 12.3121 11.2548 12.4215C11.1454 12.5309 11.084 12.6793 11.084 12.834V16.334C11.084 16.4887 11.1454 16.6371 11.2548 16.7465C11.3642 16.8558 11.5126 16.9173 11.6673 16.9173H14.584V27.4173Z" stroke="#191919" stroke-width="1.16667" stroke-linecap="round" stroke-linejoin="round"/>
</g>
<defs>
<clipPath id="clip0_607_709">
<rect width="28" height="28" fill="white"/>
</clipPath>
</defs>
</svg>
