<svg width="28" height="28" viewBox="0 0 28 28" fill="none" xmlns="http://www.w3.org/2000/svg">
<path d="M4.08398 4.08398C4.08398 3.15573 4.45273 2.26549 5.10911 1.60911C5.76549 0.952733 6.65573 0.583984 7.58398 0.583984C8.51224 0.583984 9.40248 0.952733 10.0589 1.60911C10.7152 2.26549 11.084 3.15573 11.084 4.08398V6.41732H20.4173C21.3455 6.41732 22.2358 6.78607 22.8922 7.44244C23.5485 8.09882 23.9173 8.98906 23.9173 9.91732C23.9173 10.8456 23.5485 11.7358 22.8922 12.3922C22.2358 13.0485 21.3455 13.4173 20.4173 13.4173H11.084V16.9173C11.084 17.8455 11.4527 18.7358 12.1091 19.3922C12.7655 20.0485 13.6558 20.4173 14.584 20.4173H20.4173C21.3455 20.4173 22.2358 20.7861 22.8922 21.4425C23.5485 22.0988 23.9173 22.9891 23.9173 23.9173C23.9173 24.8455 23.5485 25.7358 22.8922 26.3922C22.2358 27.0485 21.3455 27.4173 20.4173 27.4173H13.4173C10.942 27.4173 8.568 26.4339 6.81766 24.6837C5.06731 22.9334 4.08398 20.5593 4.08398 18.084V4.08398Z" fill="#66E1FF"/>
<path d="M11.084 4.08398C11.084 3.15573 10.7152 2.26549 10.0589 1.60911C9.40248 0.952733 8.51224 0.583984 7.58398 0.583984C6.65573 0.583984 5.76549 0.952733 5.10911 1.60911C4.45273 2.26549 4.08398 3.15573 4.08398 4.08398V18.084C4.08792 18.5923 4.13279 19.0996 4.21815 19.6006L17.4015 6.41732H11.084V4.08398Z" fill="#C2F3FF"/>
<path d="M4.08398 4.08398C4.08398 3.15573 4.45273 2.26549 5.10911 1.60911C5.76549 0.952733 6.65573 0.583984 7.58398 0.583984C8.51224 0.583984 9.40248 0.952733 10.0589 1.60911C10.7152 2.26549 11.084 3.15573 11.084 4.08398V6.41732H20.4173C21.3455 6.41732 22.2358 6.78607 22.8922 7.44244C23.5485 8.09882 23.9173 8.98906 23.9173 9.91732C23.9173 10.8456 23.5485 11.7358 22.8922 12.3922C22.2358 13.0485 21.3455 13.4173 20.4173 13.4173H11.084V16.9173C11.084 17.8455 11.4527 18.7358 12.1091 19.3922C12.7655 20.0485 13.6558 20.4173 14.584 20.4173H20.4173C21.3455 20.4173 22.2358 20.7861 22.8922 21.4425C23.5485 22.0988 23.9173 22.9891 23.9173 23.9173C23.9173 24.8455 23.5485 25.7358 22.8922 26.3922C22.2358 27.0485 21.3455 27.4173 20.4173 27.4173H13.4173C10.942 27.4173 8.568 26.4339 6.81766 24.6837C5.06731 22.9334 4.08398 20.5593 4.08398 18.084V4.08398Z" stroke="#191919" stroke-width="1.16667" stroke-linecap="round" stroke-linejoin="round"/>
</svg>
